<svg width="107" height="111" viewBox="0 0 107 111" fill="none" xmlns="http://www.w3.org/2000/svg">
<path d="M101.787 0.0359358C101.621 0.053282 100.933 0.114 100.263 0.157371C94.3156 0.608397 91.3637 1.64057 86.2436 5.04066C83.4136 6.92285 81.8811 8.20655 81.5415 8.97851C81.1497 9.84588 80.3398 10.9214 77.6318 14.1741C72.9557 19.7686 64.3439 31.1138 55.2269 43.6993C47.6339 54.1858 43.6109 60.0319 41.6343 63.4753C40.659 65.184 39.9189 66.329 39.0568 67.4565C38.2905 68.4627 36.5229 71.0995 34.4766 74.2741C30.9674 79.7211 29.4697 81.7942 27.7804 83.5376C27.0228 84.3182 26.7006 84.5524 26.3872 84.5524C26.1172 84.5524 25.2029 83.6503 24.6892 82.8697C24.0709 81.9416 23.6791 81.1436 22.5906 78.6196C20.6488 74.0832 18.3065 69.1653 17.5924 68.0984C17.0961 67.3698 16.4169 66.7626 15.8335 66.5545C15.4242 66.407 15.1456 66.381 13.6653 66.381C12.3591 66.381 11.8018 66.4157 11.2271 66.5371C9.08505 66.9968 6.6382 68.0984 4.34808 69.6423C1.84898 71.3337 0.359972 73.0597 0.0726192 74.621C-0.293103 76.5639 0.66474 80.5885 4.26971 92.272C6.35955 99.0461 7.72665 102.646 9.27662 105.465C9.99065 106.774 11.8367 109.697 12.0021 109.784C12.3678 109.984 14.2313 110.391 16.1034 110.704C18.7157 111.129 21.8156 111.094 24.6805 110.617C26.1608 110.365 27.2405 110.062 28.1722 109.628C28.7992 109.333 28.9385 109.22 29.4871 108.57C30.7497 107.052 32.8483 104.146 35.565 100.122C40.006 93.5383 42.061 90.6066 42.8185 89.7132C43.0711 89.427 43.5674 88.6811 43.9331 88.0652C44.2988 87.4407 44.8648 86.4866 45.187 85.9402C46.7109 83.3641 51.5697 76.3384 59.1628 65.7305C68.898 52.1301 77.3618 40.7676 79.4342 38.5298C80.0089 37.9053 80.7404 36.9165 82.3252 34.6353C84.0928 32.1026 85.0942 30.7755 86.2001 29.5612C87.5759 28.0346 89.2129 26.0397 92.1474 22.2753C96.0572 17.2619 98.0861 14.7465 99.906 12.6908C102.065 10.2535 105.592 5.17943 106.489 3.23653C107.055 2.00487 107.142 1.31964 106.794 0.799217C106.585 0.469615 105.853 0.183385 105.009 0.0793074C104.338 -0.00743574 102.518 -0.0247819 101.787 0.0359358Z" fill="#233954"/>
</svg>
